HIERARCHY
ROOT Hips
{
	OFFSET 0.000000 1.471914 24.280096
	CHANNELS 6 Xposition Yposition Zposition Xrotation Yrotation Zrotation
	JOINT Spine
	{
		OFFSET 0.000000 0.900110 1.860670
		CHANNELS 6 Xposition Yposition Zposition Xrotation Yrotation Zrotation
		JOINT Spine1
		{
			OFFSET 0.000000 0.400320 2.270309
			CHANNELS 6 Xposition Yposition Zposition Xrotation Yrotation Zrotation
			JOINT Spine2
			{
				OFFSET 0.000000 0.200920 2.296560
				CHANNELS 6 Xposition Yposition Zposition Xrotation Yrotation Zrotation
				JOINT Spine3
				{
					OFFSET 0.000000 0.000000 2.305330
					CHANNELS 6 Xposition Yposition Zposition Xrotation Yrotation Zrotation
					JOINT Neck
					{
						OFFSET 0.000000 -0.864490 6.051487
						CHANNELS 6 Xposition Yposition Zposition Xrotation Yrotation Zrotation
						JOINT Head
						{
							OFFSET 0.000000 -0.550429 3.121674
							CHANNELS 6 Xposition Yposition Zposition Xrotation Yrotation Zrotation
							End Site
							{
								OFFSET 0.000000 0.000000 3.731750
							}
						}
					}
					JOINT RightShoulder
					{
						OFFSET -0.788280 -1.313800 4.256718
						CHANNELS 6 Xposition Yposition Zposition Xrotation Yrotation Zrotation
						JOINT RightArm
						{
							OFFSET -3.915130 0.000000 0.000000
							CHANNELS 6 Xposition Yposition Zposition Xrotation Yrotation Zrotation
							JOINT RightForeArm
							{
								OFFSET -6.914910 0.000000 0.000000
								CHANNELS 6 Xposition Yposition Zposition Xrotation Yrotation Zrotation
								JOINT RightHand
								{
									OFFSET -6.096219 0.000000 0.000000
									CHANNELS 6 Xposition Yposition Zposition Xrotation Yrotation Zrotation
									JOINT RightHandEnd
									{
										OFFSET -1.749950 0.000000 0.000000
										CHANNELS 6 Xposition Yposition Zposition Xrotation Yrotation Zrotation
										End Site
										{
											OFFSET -1.749950 0.000000 0.000000
										}
									}
									JOINT RightHandThumb1
									{
										OFFSET -0.699980 -1.166630 -0.466648
										CHANNELS 6 Xposition Yposition Zposition Xrotation Yrotation Zrotation
										End Site
										{
											OFFSET -1.690319 -0.452920 0.000000
										}
									}
								}
							}
						}
					}
					JOINT LeftShoulder
					{
						OFFSET 0.788280 -1.313800 4.256718
						CHANNELS 6 Xposition Yposition Zposition Xrotation Yrotation Zrotation
						JOINT LeftArm
						{
							OFFSET 3.915130 0.000000 0.000000
							CHANNELS 6 Xposition Yposition Zposition Xrotation Yrotation Zrotation
							JOINT LeftForeArm
							{
								OFFSET 6.914910 0.000000 0.000000
								CHANNELS 6 Xposition Yposition Zposition Xrotation Yrotation Zrotation
								JOINT LeftHand
								{
									OFFSET 6.096219 0.000000 0.000000
									CHANNELS 6 Xposition Yposition Zposition Xrotation Yrotation Zrotation
									JOINT LeftHandEnd
									{
										OFFSET 1.749950 0.000000 0.000000
										CHANNELS 6 Xposition Yposition Zposition Xrotation Yrotation Zrotation
										End Site
										{
											OFFSET 1.749950 0.000000 0.000000
										}
									}
									JOINT LeftHandThumb1
									{
										OFFSET 0.699980 -1.166630 -0.466648
										CHANNELS 6 Xposition Yposition Zposition Xrotation Yrotation Zrotation
										End Site
										{
											OFFSET 1.690319 -0.452920 0.000000
										}
									}
								}
							}
						}
					}
				}
			}
		}
	}
	JOINT RightUpLeg
	{
		OFFSET -2.338570 -0.252550 -0.551512
		CHANNELS 6 Xposition Yposition Zposition Xrotation Yrotation Zrotation
		JOINT RightLeg
		{
			OFFSET 0.000000 0.000000 -10.744959
			CHANNELS 6 Xposition Yposition Zposition Xrotation Yrotation Zrotation
			JOINT RightFoot
			{
				OFFSET 0.000000 -0.000001 -10.930849
				CHANNELS 6 Xposition Yposition Zposition Xrotation Yrotation Zrotation
				JOINT RightToeBase
				{
					OFFSET 0.000000 -4.087269 -1.487650
					CHANNELS 6 Xposition Yposition Zposition Xrotation Yrotation Zrotation
					End Site
					{
						OFFSET 0.000000 -1.891870 0.000000
					}
				}
			}
		}
	}
	JOINT LeftUpLeg
	{
		OFFSET 2.338570 -0.252550 -0.551512
		CHANNELS 6 Xposition Yposition Zposition Xrotation Yrotation Zrotation
		JOINT LeftLeg
		{
			OFFSET 0.000000 0.000000 -10.744959
			CHANNELS 6 Xposition Yposition Zposition Xrotation Yrotation Zrotation
			JOINT LeftFoot
			{
				OFFSET 0.000000 -0.000001 -10.930849
				CHANNELS 6 Xposition Yposition Zposition Xrotation Yrotation Zrotation
				JOINT LeftToeBase
				{
					OFFSET 0.000000 -4.087269 -1.487650
					CHANNELS 6 Xposition Yposition Zposition Xrotation Yrotation Zrotation
					End Site
					{
						OFFSET 0.000000 -1.891870 0.000000
					}
				}
			}
		}
	}
}
MOTION
Frames: 6
Frame Time: 0.041667
0.000054 26.746342 34.561543 -10.551262 -19.373405 76.781059 -0.000023 0.900093 1.860709 18.310368 -4.063651 3.073190 0.000001 0.400253 2.270330 0.000004 -0.000001 0.000010 0.000015 0.200898 2.296576 -0.000001 0.000000 0.000001 0.000030 0.000024 2.305315 -0.000007 -0.000003 7.097700 -0.000018 -0.864469 6.051425 13.700749 19.779839 146.632687 0.000031 -0.550418 3.121673 -0.000009 -0.000001 -0.000004 -0.788272 -1.313733 4.256842 0.738755 131.681007 135.322358 -3.915137 -0.000023 -0.000000 -0.000000 -0.000001 0.000002 -6.914898 -0.000015 0.000003 0.000025 0.000022 -39.127026 -6.096198 0.000030 0.000044 -0.000049 -0.000024 -0.000073 -1.749890 -0.000064 0.000035 0.000002 -0.000001 -0.000001 -0.699978 -1.166617 -0.466652 -0.000010 -0.000006 -0.000006 0.788262 -1.313749 4.256793 42.122504 -132.240044 -133.090949 3.915177 0.000014 -0.000046 -0.000000 -0.000002 -0.000002 6.914952 -0.000066 0.000005 0.000026 -0.000011 60.339735 6.096234 0.000143 -0.000027 0.000011 0.000014 0.000001 1.749983 0.000009 0.000055 -0.000006 -0.000000 0.000004 0.699956 -1.166619 -0.466617 0.000018 0.000002 -0.000023 -2.338593 -0.252546 -0.551486 -43.148757 -9.347612 -6.703657 0.000009 -0.000022 -10.744954 76.181102 -6.565613 -2.101996 -0.000014 0.000081 -10.930838 0.000000 0.000005 0.000002 0.000007 -4.087236 -1.487638 0.000003 0.000003 -0.000001 2.338582 -0.252528 -0.551484 -37.328326 -6.219472 -5.893465 -0.000003 -0.000015 -10.744923 73.201794 -5.052030 1.502164 -0.000003 0.000009 -10.930863 -0.000009 0.000001 0.000001 -0.000023 -4.087203 -1.487639 0.000002 0.000001 -0.000001 
0.000116 26.746376 34.561661 -12.513584 -19.349878 73.881617 -0.000023 0.900095 1.860699 19.587821 -2.520549 3.887997 -0.000005 0.400254 2.270329 0.000001 -0.000001 0.000010 0.000017 0.200897 2.296577 0.000000 0.000000 0.000001 0.000030 0.000023 2.305315 -0.000006 -0.000003 7.366391 -0.000014 -0.864467 6.051419 20.692089 15.900127 105.159102 0.000032 -0.550420 3.121681 -0.000013 -0.000001 -0.000003 -0.788267 -1.313732 4.256836 -26.102198 120.620048 157.095252 -3.915136 -0.000022 -0.000004 0.000001 -0.000003 0.000004 -6.914906 -0.000019 0.000003 0.000018 -0.000001 -47.994421 -6.096200 0.000021 0.000040 -0.000053 -0.000027 -0.000068 -1.749891 -0.000064 0.000038 0.000002 -0.000000 -0.000004 -0.699979 -1.166610 -0.466652 -0.000010 -0.000008 -0.000006 0.788265 -1.313746 4.256789 45.675760 -139.109042 -125.111116 3.915177 0.000008 -0.000038 0.000000 -0.000002 -0.000000 6.914955 -0.000065 0.000004 0.000024 -0.000008 63.107587 6.096233 0.000142 -0.000040 0.000011 0.000013 0.000005 1.749989 0.000016 0.000051 -0.000004 -0.000003 0.000001 0.699963 -1.166619 -0.466617 0.000020 -0.000002 -0.000027 -2.338593 -0.252543 -0.551491 -45.520919 -11.621948 -8.252345 0.000012 -0.000021 -10.744957 79.867130 -3.930663 -3.385935 -0.000015 0.000082 -10.930836 -0.000002 0.000006 0.000003 0.000009 -4.087237 -1.487636 0.000005 0.000003 -0.000001 2.338577 -0.252527 -0.551491 -38.498693 -6.293656 -7.137140 -0.000008 -0.000021 -10.744922 75.148774 -3.841588 2.661704 -0.000001 0.000011 -10.930867 -0.000012 -0.000002 0.000002 -0.000021 -4.087204 -1.487639 0.000001 0.000001 -0.000002 
0.000083 26.746447 34.561890 -13.917800 -19.769911 73.875135 -0.000022 0.900095 1.860703 19.396854 0.623976 3.816957 -0.000002 0.400253 2.270330 0.000002 -0.000001 0.000009 0.000014 0.200897 2.296583 -0.000000 0.000000 0.000002 0.000028 0.000025 2.305311 -0.000005 -0.000004 10.559211 -0.000019 -0.864468 6.051423 54.895446 10.296401 41.264871 0.000027 -0.550419 3.121677 -0.000009 0.000000 -0.000003 -0.788274 -1.313732 4.256846 -73.030616 114.900734 203.213018 -3.915133 -0.000018 -0.000004 -0.000001 -0.000001 0.000001 -6.914903 -0.000022 0.000006 0.000005 -0.000026 -59.190276 -6.096192 0.000028 0.000044 -0.000054 -0.000024 -0.000070 -1.749888 -0.000068 0.000026 0.000003 0.000003 -0.000001 -0.699975 -1.166615 -0.466657 -0.000009 -0.000005 -0.000010 0.788265 -1.313745 4.256797 46.836332 -145.540089 -121.693617 3.915174 0.000016 -0.000034 0.000005 0.000001 0.000002 6.914956 -0.000070 0.000007 0.000004 0.000021 77.706051 6.096237 0.000142 -0.000037 0.000011 0.000015 0.000007 1.749986 0.000008 0.000056 -0.000006 -0.000001 0.000000 0.699958 -1.166621 -0.466620 0.000022 -0.000001 -0.000027 -2.338595 -0.252546 -0.551487 -40.975903 -11.543833 -7.447982 0.000007 -0.000018 -10.744955 72.397451 -4.283326 -2.768975 -0.000011 0.000081 -10.930836 0.000000 0.000004 0.000003 0.000007 -4.087238 -1.487638 0.000004 0.000003 -0.000001 2.338579 -0.252530 -0.551490 -35.250490 -6.232545 -6.491765 -0.000003 -0.000019 -10.744918 71.214284 -4.161625 2.865695 -0.000002 0.000009 -10.930867 -0.000007 -0.000001 0.000001 -0.000021 -4.087203 -1.487639 -0.000001 0.000001 -0.000003 
0.000085 26.746553 34.562271 -12.094365 -18.917151 71.456660 -0.000024 0.900097 1.860703 16.434017 5.567534 2.548271 -0.000002 0.400251 2.270326 0.000004 0.000000 0.000012 0.000016 0.200898 2.296579 -0.000000 -0.000000 0.000001 0.000027 0.000023 2.305304 -0.000006 -0.000004 15.597135 -0.000016 -0.864471 6.051422 84.886178 -0.596743 42.919922 0.000028 -0.550416 3.121673 -0.000009 -0.000002 -0.000004 -0.788268 -1.313735 4.256845 -92.917675 118.478825 224.884224 -3.915137 -0.000019 -0.000004 -0.000001 -0.000001 -0.000001 -6.914901 -0.000010 -0.000000 -0.000003 -0.000041 -65.440254 -6.096196 0.000025 0.000040 -0.000056 -0.000024 -0.000074 -1.749886 -0.000060 0.000029 -0.000003 0.000002 -0.000002 -0.699974 -1.166614 -0.466653 -0.000014 -0.000003 -0.000007 0.788267 -1.313749 4.256791 38.726336 -140.912048 -128.115457 3.915173 0.000016 -0.000046 0.000005 0.000002 0.000003 6.914952 -0.000066 0.000012 -0.000017 0.000041 90.450904 6.096230 0.000135 -0.000034 0.000009 0.000020 0.000007 1.749982 0.000011 0.000051 -0.000004 -0.000001 -0.000000 0.699959 -1.166620 -0.466617 0.000018 0.000002 -0.000028 -2.338593 -0.252544 -0.551483 -41.686448 -12.376694 -5.889465 0.000011 -0.000024 -10.744956 70.001441 -1.745848 -5.411935 -0.000009 0.000081 -10.930836 -0.000002 0.000005 0.000002 0.000008 -4.087237 -1.487636 0.000003 0.000003 -0.000001 2.338581 -0.252527 -0.551484 -35.836514 -8.610130 -5.088508 -0.000004 -0.000018 -10.744922 70.074257 -0.760632 -1.412258 0.000001 0.000010 -10.930864 -0.000010 0.000000 0.000002 -0.000023 -4.087205 -1.487638 0.000002 0.000002 -0.000000 
0.000059 26.746443 34.561920 -14.657675 -17.711411 75.786529 -0.000022 0.900094 1.860705 15.740519 0.367866 3.223272 -0.000002 0.400253 2.270330 0.000003 -0.000000 0.000009 0.000016 0.200897 2.296577 -0.000001 0.000001 0.000000 0.000031 0.000024 2.305311 -0.000006 -0.000011 13.020921 -0.000017 -0.864471 6.051428 61.970791 2.929010 32.669020 0.000028 -0.550426 3.121673 -0.000010 0.000000 -0.000003 -0.788272 -1.313734 4.256843 -59.121626 110.748492 193.683442 -3.915139 -0.000021 -0.000004 -0.000000 -0.000002 0.000002 -6.914905 -0.000017 0.000001 0.000014 -0.000012 -51.672276 -6.096195 0.000027 0.000041 -0.000053 -0.000022 -0.000071 -1.749889 -0.000068 0.000035 0.000001 0.000000 -0.000005 -0.699977 -1.166620 -0.466652 -0.000010 -0.000005 -0.000009 0.788264 -1.313748 4.256793 39.819542 -130.338396 -133.065254 3.915174 0.000013 -0.000053 0.000002 -0.000001 -0.000000 6.914949 -0.000070 0.000002 0.000025 -0.000011 60.204873 6.096232 0.000136 -0.000033 0.000009 0.000015 0.000009 1.749985 0.000010 0.000056 -0.000008 -0.000002 0.000002 0.699960 -1.166622 -0.466609 0.000018 0.000001 -0.000021 -2.338592 -0.252545 -0.551488 -46.225054 -10.372055 -8.468001 0.000011 -0.000020 -10.744954 74.071482 -6.523194 -2.100461 -0.000013 0.000082 -10.930837 0.000002 0.000005 0.000003 0.000009 -4.087236 -1.487637 0.000001 0.000000 -0.000004 2.338582 -0.252526 -0.551491 -41.044406 -8.502803 -7.629468 -0.000004 -0.000020 -10.744916 74.645348 -5.771127 0.348756 -0.000000 0.000009 -10.930869 -0.000005 -0.000000 0.000001 -0.000025 -4.087204 -1.487640 -0.000002 0.000002 -0.000001 
0.000106 26.746460 34.561970 -15.342092 -18.615658 72.702282 -0.000025 0.900094 1.860704 17.451453 3.853968 3.734790 -0.000004 0.400251 2.270330 0.000002 -0.000001 0.000010 0.000015 0.200899 2.296581 -0.000001 -0.000000 0.000001 0.000029 0.000025 2.305304 -0.000006 -0.000007 13.066890 -0.000018 -0.864465 6.051422 67.012147 11.190476 43.358485 0.000031 -0.550424 3.121673 -0.000011 0.000000 -0.000003 -0.788275 -1.313732 4.256840 -75.749223 114.982628 208.912168 -3.915138 -0.000026 -0.000004 -0.000003 -0.000005 0.000001 -6.914902 -0.000014 0.000004 0.000013 -0.000010 -51.847508 -6.096200 0.000021 0.000044 -0.000056 -0.000023 -0.000069 -1.749887 -0.000066 0.000039 0.000003 0.000001 -0.000005 -0.699976 -1.166611 -0.466653 -0.000010 -0.000006 -0.000009 0.788265 -1.313747 4.256792 38.858889 -131.354127 -132.568316 3.915182 0.000016 -0.000046 0.000003 -0.000001 0.000003 6.914951 -0.000067 0.000008 0.000021 -0.000001 63.497339 6.096233 0.000145 -0.000036 0.000009 0.000015 0.000007 1.749980 0.000011 0.000055 -0.000007 -0.000002 -0.000001 0.699957 -1.166625 -0.466621 0.000017 0.000003 -0.000024 -2.338596 -0.252546 -0.551485 -45.056787 -10.686064 -8.563047 0.000010 -0.000024 -10.744957 76.233476 -6.900838 -1.999741 -0.000012 0.000080 -10.930835 0.000002 0.000004 0.000004 0.000010 -4.087238 -1.487633 0.000006 0.000003 -0.000001 2.338577 -0.252527 -0.551491 -39.469440 -8.195568 -7.621105 0.000000 -0.000023 -10.744918 76.860030 -6.450505 1.138004 0.000000 0.000010 -10.930865 -0.000009 -0.000002 0.000001 -0.000025 -4.087201 -1.487640 -0.000001 0.000001 -0.000001 
